<?xml version="1.0" encoding="utf-8"?>
<!-- Svg Vector Icons : http://www.onlinewebfonts.com/icon -->
<!DOCTYPE svg PUBLIC "-//W3C//DTD SVG 1.1//EN" "http://www.w3.org/Graphics/SVG/1.1/DTD/svg11.dtd">
<svg version="1.1" xmlns="http://www.w3.org/2000/svg" xmlns:xlink="http://www.w3.org/1999/xlink" x="0px" y="0px" viewBox="0 0 256 256" enable-background="new 0 0 256 256" xml:space="preserve">
<metadata> Svg Vector Icons : http://www.onlinewebfonts.com/icon </metadata>
<g><g><g><g><path fill="#000000" d="M186.8,99c0-1.4-0.6-2.5-1.7-3.3l-54.3-42c-1.6-1.3-3.3-1.3-5.2,0l-52.4,42c-0.9,0.8-1.4,1.9-1.4,3.3v75.8c0,1.3,0.4,2.3,1.2,3.1c0.8,0.8,1.7,1.2,2.8,1.2H107c1.3,0,2.3-0.4,3.1-1.2c0.8-0.8,1.2-1.8,1.2-3.1v-46.5h35.9v46.5c0,1.3,0.4,2.3,1.2,3.1c0.8,0.8,1.8,1.2,3.1,1.2h31.2c1.3,0,2.3-0.4,3.1-1.2c0.8-0.8,1.2-1.8,1.2-3.1V99L186.8,99z M128,10c16.2,0,31.5,3.1,45.9,9.3c14.4,6.2,26.9,14.6,37.5,25.3c10.6,10.6,19,23.1,25.3,37.5c6.2,14.4,9.3,29.7,9.3,45.9c0,10.9-1.4,21.3-4.2,31.4c-2.8,10.1-6.8,19.5-11.9,28.2c-5.1,8.7-11.2,16.7-18.4,23.8c-7.2,7.2-15.1,13.3-23.8,18.4c-8.7,5.1-18.1,9.1-28.2,11.9c-10.1,2.8-20.5,4.3-31.4,4.3c-10.9,0-21.3-1.4-31.4-4.2c-10.1-2.8-19.5-6.8-28.2-11.9c-8.7-5.1-16.7-11.2-23.8-18.4c-7.2-7.2-13.3-15.1-18.4-23.8c-5.1-8.7-9.1-18.1-11.9-28.2C11.4,149.3,10,138.9,10,128c0-10.9,1.4-21.3,4.2-31.4c2.8-10.1,6.8-19.5,11.9-28.2c5.1-8.7,11.2-16.7,18.4-23.8c7.2-7.2,15.1-13.3,23.8-18.4c8.7-5.1,18.1-9.1,28.2-11.9C106.7,11.4,117.1,10,128,10z"/></g></g><g></g><g></g><g></g><g></g><g></g><g></g><g></g><g></g><g></g><g></g><g></g><g></g><g></g><g></g><g></g></g></g>
</svg>